<svg width="8" height="8" viewBox="0 0 8 8" fill="none" xmlns="http://www.w3.org/2000/svg">
<path d="M6.91667 0.25H1.08333C0.86232 0.25 0.650358 0.337797 0.494078 0.494078C0.337797 0.650358 0.25 0.86232 0.25 1.08333V6.91667C0.25 7.13768 0.337797 7.34964 0.494078 7.50592C0.650358 7.6622 0.86232 7.75 1.08333 7.75H6.91667C7.13768 7.75 7.34964 7.6622 7.50592 7.50592C7.6622 7.34964 7.75 7.13768 7.75 6.91667V1.08333C7.75 0.86232 7.6622 0.650358 7.50592 0.494078C7.34964 0.337797 7.13768 0.25 6.91667 0.25ZM6.91667 6.91667H1.08333V1.08333H6.91667V6.91667ZM6.08333 2.5L4.58333 4L6.08333 5.5L5.5 6.08333L4 4.58333L2.5 6.08333L1.91667 5.5L3.41667 4L1.91667 2.5L2.5 1.91667L4 3.41667L5.5 1.91667L6.08333 2.5Z" fill="#CD2E2E"/>
</svg>
